<svg width="38" height="26" viewBox="0 0 38 26" fill="none" xmlns="http://www.w3.org/2000/svg">
    <path d="M2.08333 25.5H35.4167C36.5625 25.5 37.5 24.5625 37.5 23.4167C37.5 22.2708 36.5625 21.3333 35.4167 21.3333H2.08333C0.9375 21.3333 0 22.2708 0 23.4167C0 24.5625 0.9375 25.5 2.08333 25.5ZM2.08333 15.0833H35.4167C36.5625 15.0833 37.5 14.1458 37.5 13C37.5 11.8542 36.5625 10.9167 35.4167 10.9167H2.08333C0.9375 10.9167 0 11.8542 0 13C0 14.1458 0.9375 15.0833 2.08333 15.0833ZM0 2.58333C0 3.72917 0.9375 4.66667 2.08333 4.66667H35.4167C36.5625 4.66667 37.5 3.72917 37.5 2.58333C37.5 1.4375 36.5625 0.5 35.4167 0.5H2.08333C0.9375 0.5 0 1.4375 0 2.58333Z"
          fill="#0085FF"/>
</svg>
