<svg width="45" height="30" viewBox="0 0 45 30" fill="none" xmlns="http://www.w3.org/2000/svg">
    <g clip-path="url(#clip0_20_5)">
        <path d="M28.0029 0.011789C27.0237 0.105276 26.1873 0.764601 25.8674 1.69454C25.5427 2.62941 25.7936 3.66268 26.5071 4.34168L34.6552 12.4898H3.00757C2.92885 12.4848 2.85012 12.4848 2.7714 12.4898C1.37894 12.5537 0.306308 13.7346 0.370272 15.1271C0.434236 16.5195 1.61512 17.5921 3.00757 17.5282H34.6552L26.4677 25.6763C25.4787 26.6652 25.4787 28.2693 26.4677 29.2583C27.4567 30.2472 29.0607 30.2472 30.0497 29.2583L42.4883 16.7803L44.299 15.009L42.4883 13.2376L30.0497 0.75968C29.5183 0.213522 28.7655 -0.0620163 28.0029 0.011789Z"
              fill="black"/>
    </g>
    <defs>
        <clipPath id="clip0_20_5">
            <rect width="43.9315" height="30" fill="white" transform="translate(0.367554)"/>
        </clipPath>
    </defs>
</svg>
