<svg width="30" height="30" viewBox="0 0 30 30" fill="none" xmlns="http://www.w3.org/2000/svg">
    <path d="M3.20692 0C1.69964 0 0.456664 1.24298 0.456664 2.75026V12.4238C0.454455 12.5799 0.483311 12.735 0.541554 12.88C0.599797 13.0249 0.686266 13.1568 0.795936 13.268C0.905606 13.3793 1.03629 13.4676 1.18039 13.5279C1.3245 13.5882 1.47914 13.6192 1.63535 13.6192C1.79155 13.6192 1.9462 13.5882 2.0903 13.5279C2.2344 13.4676 2.36509 13.3793 2.47476 13.268C2.58443 13.1568 2.6709 13.0249 2.72914 12.88C2.78738 12.735 2.81624 12.5799 2.81403 12.4238V2.75026C2.81403 2.52881 2.98548 2.35737 3.20692 2.35737H19.7085C19.9299 2.35737 20.1014 2.52881 20.1014 2.75026V6.44132C19.8337 6.53724 19.6098 6.72662 19.4707 6.97459C19.3316 7.22257 19.2869 7.51244 19.3446 7.79082C19.4023 8.06921 19.5587 8.31736 19.7849 8.48959C20.0111 8.66181 20.2919 8.74651 20.5756 8.72809C22.4777 8.59691 24.382 9.37417 25.7185 10.978C25.7206 10.9811 25.7226 10.9842 25.7247 10.9872C27.9691 13.6277 27.561 17.6597 24.9435 19.7537C24.8226 19.8504 24.7219 19.97 24.6472 20.1057C24.5725 20.2414 24.5252 20.3904 24.5081 20.5443C24.4736 20.8551 24.564 21.167 24.7593 21.4112C24.9547 21.6554 25.2391 21.812 25.5499 21.8466C25.7039 21.8637 25.8596 21.8503 26.0084 21.8072C26.1571 21.7641 26.2959 21.6921 26.4169 21.5954C30.0844 18.6613 30.6188 13.1107 27.5234 9.46476C26.1848 7.86123 24.382 6.84187 22.4587 6.4935V2.75026C22.4587 1.24298 21.2158 0 19.7085 0H3.20692ZM16.1448 8.09117C15.8791 8.10058 15.6243 8.19956 15.4219 8.37203C11.7734 11.3821 11.2318 16.9274 14.3307 20.5732C15.8431 22.3525 17.9469 23.5659 20.2902 23.6596C20.4449 23.6658 20.5993 23.6414 20.7445 23.5879C20.8898 23.5344 21.0231 23.4528 21.1369 23.3478C21.2506 23.2427 21.3426 23.1163 21.4075 22.9758C21.4723 22.8352 21.5089 22.6832 21.515 22.5285C21.5212 22.3738 21.4968 22.2194 21.4433 22.0741C21.3898 21.9289 21.3081 21.7956 21.2031 21.6818C21.098 21.5681 20.9716 21.4762 20.831 21.4113C20.6905 21.3464 20.5385 21.3099 20.3838 21.3038C18.7981 21.2403 17.2872 20.4101 16.1279 19.0462C13.8835 16.4057 14.2852 12.3653 16.9229 10.1892C17.1162 10.0343 17.2558 9.82245 17.3219 9.58374C17.388 9.34503 17.3772 9.09157 17.291 8.85934C17.2049 8.62711 17.0478 8.42791 16.8421 8.29002C16.6363 8.15213 16.3924 8.08255 16.1448 8.09117ZM20.9486 11.2282C20.7938 11.2304 20.6409 11.2631 20.4988 11.3244C20.3566 11.3856 20.2279 11.4743 20.12 11.5854C20.0122 11.6964 19.9272 11.8275 19.87 11.9714C19.8128 12.1153 19.7845 12.269 19.7868 12.4238V13.8388H18.3733C18.2171 13.8366 18.062 13.8654 17.9171 13.9237C17.7721 13.9819 17.6402 14.0684 17.529 14.1781C17.4177 14.2877 17.3294 14.4184 17.2691 14.5625C17.2088 14.7066 17.1778 14.8613 17.1778 15.0175C17.1778 15.1737 17.2088 15.3283 17.2691 15.4724C17.3294 15.6165 17.4177 15.7472 17.529 15.8569C17.6402 15.9665 17.7721 16.053 17.9171 16.1113C18.062 16.1695 18.2171 16.1984 18.3733 16.1962H19.7868V17.6096C19.7846 17.7658 19.8134 17.9209 19.8717 18.0659C19.9299 18.2108 20.0164 18.3427 20.126 18.4539C20.2357 18.5652 20.3664 18.6535 20.5105 18.7138C20.6546 18.7741 20.8092 18.8051 20.9654 18.8051C21.1216 18.8051 21.2763 18.7741 21.4204 18.7138C21.5645 18.6535 21.6952 18.5652 21.8049 18.4539C21.9145 18.3427 22.001 18.2108 22.0592 18.0659C22.1175 17.9209 22.1463 17.7658 22.1441 17.6096V16.1962H23.5592C23.7153 16.1984 23.8704 16.1695 24.0154 16.1113C24.1603 16.053 24.2922 15.9665 24.4035 15.8569C24.5147 15.7472 24.603 15.6165 24.6633 15.4724C24.7236 15.3283 24.7546 15.1737 24.7546 15.0175C24.7546 14.8613 24.7236 14.7066 24.6633 14.5625C24.603 14.4184 24.5147 14.2877 24.4035 14.1781C24.2922 14.0684 24.1603 13.9819 24.0154 13.9237C23.8704 13.8654 23.7153 13.8366 23.5592 13.8388H22.1441V12.4238C22.1464 12.2661 22.117 12.1096 22.0577 11.9636C21.9984 11.8175 21.9105 11.6848 21.799 11.5733C21.6875 11.4619 21.5548 11.3739 21.4087 11.3146C21.2627 11.2553 21.1062 11.2259 20.9486 11.2282ZM1.61693 16.1701C1.30459 16.1749 1.00696 16.3036 0.789411 16.5278C0.571862 16.7519 0.452184 17.0533 0.456664 17.3656V27.2663C0.456664 29.4566 3.10661 30.8136 4.86905 29.4579L11.4592 24.6864L18.0817 29.4057C18.9771 30.0443 20.1234 30.0733 20.9793 29.6282C21.8356 29.1829 22.4587 28.2586 22.4587 27.188V25.5919C22.461 25.4357 22.4321 25.2806 22.3739 25.1356C22.3156 24.9907 22.2291 24.8588 22.1195 24.7476C22.0098 24.6363 21.8791 24.548 21.735 24.4877C21.5909 24.4274 21.4363 24.3964 21.2801 24.3964C21.1239 24.3964 20.9692 24.4274 20.8251 24.4877C20.681 24.548 20.5503 24.6363 20.4407 24.7476C20.331 24.8588 20.2445 24.9907 20.1863 25.1356C20.128 25.2806 20.0992 25.4357 20.1014 25.5919V27.188C20.1014 27.3746 20.017 27.4709 19.8911 27.5364C19.7653 27.6018 19.6551 27.6317 19.4507 27.4857C19.4501 27.4857 19.4496 27.4857 19.4491 27.4857L12.6134 22.6129L12.7622 22.7403C12.0639 22.0419 10.9721 22.112 10.2806 22.6298L3.45862 27.5686C3.44931 27.5756 3.4401 27.5828 3.431 27.5901C3.15043 27.8059 2.81403 27.5904 2.81403 27.2663V17.3656C2.81629 17.2079 2.78686 17.0513 2.72749 16.9051C2.66811 16.7589 2.57999 16.6261 2.46835 16.5146C2.35672 16.4032 2.22384 16.3152 2.07758 16.256C1.93133 16.1968 1.77469 16.1676 1.61693 16.1701Z"
          fill="black"/>
</svg>
