<svg width="29" height="30" viewBox="0 0 29 30" fill="none" xmlns="http://www.w3.org/2000/svg">
    <g clip-path="url(#clip0_19_38)">
        <path d="M20.5505 15.5548C20.3565 15.8914 20.3545 15.8931 20.0765 16.1831L4.06823 29.5217C3.95222 29.6 3.84422 29.6883 3.71822 29.755C2.96021 30.1516 1.88619 30.0616 1.23817 29.5217C0.600161 28.9884 0.480159 28.0918 0.960168 27.4552C1.04017 27.3503 1.14617 27.2619 1.23817 27.1636L15.8324 15.0049L1.23817 2.84614L0.960168 2.55283C0.894167 2.44118 0.814165 2.33452 0.766164 2.21787C0.324156 1.16631 1.43618 -0.125222 2.8782 0.00976416C3.17621 0.0380945 3.46421 0.121419 3.71822 0.254738C3.84422 0.321398 3.95222 0.409722 4.06823 0.488047L20.0765 13.825C20.1705 13.9233 20.2765 14.0116 20.3565 14.1183C20.5165 14.3299 20.6165 14.5682 20.6505 14.8182C20.6825 15.0649 20.6165 15.3115 20.5505 15.5548ZM24.6646 28.3435V1.66626C24.6806 1.54294 24.6826 1.41628 24.7146 1.29463C25.0366 0.123085 27.1467 -0.505182 28.2307 0.626366C28.4167 0.823013 28.5487 1.05132 28.6167 1.29463C28.6507 1.41628 28.6507 1.54294 28.6667 1.66626V28.3435C28.6507 28.4668 28.6327 28.5901 28.6167 28.7134C28.5667 28.8318 28.5327 28.9534 28.4687 29.0667C27.8887 30.07 26.0046 30.3266 25.1006 29.3817C24.9146 29.1867 24.7826 28.9584 24.7146 28.7134C24.6826 28.5918 24.6806 28.4668 24.6646 28.3435Z"
              fill="black"/>
    </g>
    <defs>
        <clipPath id="clip0_19_38">
            <rect width="28" height="30" fill="white" transform="translate(0.666687)"/>
        </clipPath>
    </defs>
</svg>
