<svg width="56" height="28" viewBox="0 0 56 28" fill="none" xmlns="http://www.w3.org/2000/svg">
    <path d="M2.00002 8.4C1.51379 8.4 1.04747 8.49833 0.703658 8.67337C0.359841 8.8484 0.166687 9.0858 0.166687 9.33333V18.6667C0.166687 18.9142 0.359841 19.1516 0.703658 19.3266C1.04747 19.5017 1.51379 19.6 2.00002 19.6C2.48625 19.6 2.95257 19.5017 3.29638 19.3266C3.6402 19.1516 3.83335 18.9142 3.83335 18.6667V9.33333C3.83335 9.0858 3.6402 8.8484 3.29638 8.67337C2.95257 8.49833 2.48625 8.4 2.00002 8.4ZM9.33335 3.73333C8.84712 3.73333 8.38081 3.83167 8.03699 4.0067C7.69318 4.18173 7.50002 4.41913 7.50002 4.66667V23.3333C7.50002 23.5809 7.69318 23.8183 8.03699 23.9933C8.38081 24.1683 8.84712 24.2667 9.33335 24.2667C9.81958 24.2667 10.2859 24.1683 10.6297 23.9933C10.9735 23.8183 11.1667 23.5809 11.1667 23.3333V4.66667C11.1667 4.41913 10.9735 4.18173 10.6297 4.0067C10.2859 3.83167 9.81958 3.73333 9.33335 3.73333ZM31.3334 8.4C30.8471 8.4 30.3808 8.49833 30.037 8.67337C29.6932 8.8484 29.5 9.0858 29.5 9.33333V18.6667C29.5 18.9142 29.6932 19.1516 30.037 19.3266C30.3808 19.5017 30.8471 19.6 31.3334 19.6C31.8196 19.6 32.2859 19.5017 32.6297 19.3266C32.9735 19.1516 33.1667 18.9142 33.1667 18.6667V9.33333C33.1667 9.0858 32.9735 8.8484 32.6297 8.67337C32.2859 8.49833 31.8196 8.4 31.3334 8.4ZM24 3.73333C23.5138 3.73333 23.0475 3.83167 22.7037 4.0067C22.3598 4.18173 22.1667 4.41913 22.1667 4.66667V23.3333C22.1667 23.5809 22.3598 23.8183 22.7037 23.9933C23.0475 24.1683 23.5138 24.2667 24 24.2667C24.4863 24.2667 24.9526 24.1683 25.2964 23.9933C25.6402 23.8183 25.8334 23.5809 25.8334 23.3333V4.66667C25.8334 4.41913 25.6402 4.18173 25.2964 4.0067C24.9526 3.83167 24.4863 3.73333 24 3.73333ZM16.6667 0C16.1805 0 15.7141 0.098333 15.3703 0.273367C15.0265 0.448401 14.8334 0.685798 14.8334 0.933333V27.0667C14.8334 27.3142 15.0265 27.5516 15.3703 27.7266C15.7141 27.9017 16.1805 28 16.6667 28C17.1529 28 17.6192 27.9017 17.963 27.7266C18.3069 27.5516 18.5 27.3142 18.5 27.0667V0.933333C18.5 0.685798 18.3069 0.448401 17.963 0.273367C17.6192 0.098333 17.1529 0 16.6667 0ZM53.3334 8.4C52.8471 8.4 52.3808 8.49833 52.037 8.67337C51.6932 8.8484 51.5 9.0858 51.5 9.33333V18.6667C51.5 18.9142 51.6932 19.1516 52.037 19.3266C52.3808 19.5017 52.8471 19.6 53.3334 19.6C53.8196 19.6 54.2859 19.5017 54.6297 19.3266C54.9735 19.1516 55.1667 18.9142 55.1667 18.6667V9.33333C55.1667 9.0858 54.9735 8.8484 54.6297 8.67337C54.2859 8.49833 53.8196 8.4 53.3334 8.4ZM46 3.73333C45.5138 3.73333 45.0475 3.83167 44.7037 4.0067C44.3598 4.18173 44.1667 4.41913 44.1667 4.66667V23.3333C44.1667 23.5809 44.3598 23.8183 44.7037 23.9933C45.0475 24.1683 45.5138 24.2667 46 24.2667C46.4863 24.2667 46.9526 24.1683 47.2964 23.9933C47.6402 23.8183 47.8334 23.5809 47.8334 23.3333V4.66667C47.8334 4.41913 47.6402 4.18173 47.2964 4.0067C46.9526 3.83167 46.4863 3.73333 46 3.73333ZM38.6667 0C38.1805 0 37.7141 0.098333 37.3703 0.273367C37.0265 0.448401 36.8334 0.685798 36.8334 0.933333V27.0667C36.8334 27.3142 37.0265 27.5516 37.3703 27.7266C37.7141 27.9017 38.1805 28 38.6667 28C39.1529 28 39.6192 27.9017 39.9631 27.7266C40.3069 27.5516 40.5 27.3142 40.5 27.0667V0.933333C40.5 0.685798 40.3069 0.448401 39.9631 0.273367C39.6192 0.098333 39.1529 0 38.6667 0Z"
          fill="black"/>
</svg>
